<svg width="42" height="42" viewBox="0 0 42 42" fill="none" xmlns="http://www.w3.org/2000/svg">
<path d="M9.1875 18.375C6.65 18.375 4.48437 17.4781 2.69062 15.6844C0.896875 13.8906 0 11.725 0 9.1875C0 6.65 0.896875 4.48437 2.69062 2.69062C4.48437 0.896875 6.65 0 9.1875 0C11.725 0 13.8906 0.896875 15.6844 2.69062C17.4781 4.48437 18.375 6.65 18.375 9.1875C18.375 11.725 17.4781 13.8906 15.6844 15.6844C13.8906 17.4781 11.725 18.375 9.1875 18.375ZM9.1875 13.125C10.2812 13.125 11.2109 12.7422 11.9766 11.9766C12.7422 11.2109 13.125 10.2812 13.125 9.1875C13.125 8.09375 12.7422 7.16406 11.9766 6.39844C11.2109 5.63281 10.2812 5.25 9.1875 5.25C8.09375 5.25 7.16406 5.63281 6.39844 6.39844C5.63281 7.16406 5.25 8.09375 5.25 9.1875C5.25 10.2812 5.63281 11.2109 6.39844 11.9766C7.16406 12.7422 8.09375 13.125 9.1875 13.125ZM32.8125 42C30.275 42 28.1094 41.1031 26.3156 39.3094C24.5219 37.5156 23.625 35.35 23.625 32.8125C23.625 30.275 24.5219 28.1094 26.3156 26.3156C28.1094 24.5219 30.275 23.625 32.8125 23.625C35.35 23.625 37.5156 24.5219 39.3094 26.3156C41.1031 28.1094 42 30.275 42 32.8125C42 35.35 41.1031 37.5156 39.3094 39.3094C37.5156 41.1031 35.35 42 32.8125 42ZM32.8125 36.75C33.9062 36.75 34.8359 36.3672 35.6016 35.6016C36.3672 34.8359 36.75 33.9062 36.75 32.8125C36.75 31.7187 36.3672 30.7891 35.6016 30.0234C34.8359 29.2578 33.9062 28.875 32.8125 28.875C31.7187 28.875 30.7891 29.2578 30.0234 30.0234C29.2578 30.7891 28.875 31.7187 28.875 32.8125C28.875 33.9062 29.2578 34.8359 30.0234 35.6016C30.7891 36.3672 31.7187 36.75 32.8125 36.75ZM3.675 42L0 38.325L38.325 0L42 3.675L3.675 42Z" fill="white"/>
</svg>
