<svg width="29" height="36" viewBox="0 0 29 36" fill="none" xmlns="http://www.w3.org/2000/svg">
<path d="M4.24998 35.5C3.3104 35.5 2.50606 35.1573 1.83696 34.4719C1.16786 33.7865 0.833313 32.9625 0.833313 32V11C0.833313 10.0375 1.16786 9.21354 1.83696 8.52812C2.50606 7.84271 3.3104 7.5 4.24998 7.5H7.66665C7.66665 5.575 8.33574 3.92708 9.67394 2.55625C11.0121 1.18542 12.6208 0.5 14.5 0.5C16.3791 0.5 17.9878 1.18542 19.326 2.55625C20.6642 3.92708 21.3333 5.575 21.3333 7.5H24.75C25.6896 7.5 26.4939 7.84271 27.163 8.52812C27.8321 9.21354 28.1666 10.0375 28.1666 11V32C28.1666 32.9625 27.8321 33.7865 27.163 34.4719C26.4939 35.1573 25.6896 35.5 24.75 35.5H4.24998ZM4.24998 32H24.75V11H21.3333V14.5C21.3333 14.9958 21.1696 15.4115 20.8422 15.7469C20.5147 16.0823 20.109 16.25 19.625 16.25C19.141 16.25 18.7352 16.0823 18.4078 15.7469C18.0804 15.4115 17.9166 14.9958 17.9166 14.5V11H11.0833V14.5C11.0833 14.9958 10.9196 15.4115 10.5922 15.7469C10.2647 16.0823 9.85901 16.25 9.37498 16.25C8.89095 16.25 8.48522 16.0823 8.15779 15.7469C7.83036 15.4115 7.66665 14.9958 7.66665 14.5V11H4.24998V32ZM11.0833 7.5H17.9166C17.9166 6.5375 17.5821 5.71354 16.913 5.02812C16.2439 4.34271 15.4396 4 14.5 4C13.5604 4 12.7561 4.34271 12.087 5.02812C11.4179 5.71354 11.0833 6.5375 11.0833 7.5Z" fill="white"/>
</svg>
