<svg width="36" height="36" viewBox="0 0 36 36" fill="none" xmlns="http://www.w3.org/2000/svg">
<path d="M11.25 35.5C10.2875 35.5 9.46354 35.1573 8.77812 34.4719C8.09271 33.7865 7.75 32.9625 7.75 32C7.75 31.0375 8.09271 30.2135 8.77812 29.5281C9.46354 28.8427 10.2875 28.5 11.25 28.5C12.2125 28.5 13.0365 28.8427 13.7219 29.5281C14.4073 30.2135 14.75 31.0375 14.75 32C14.75 32.9625 14.4073 33.7865 13.7219 34.4719C13.0365 35.1573 12.2125 35.5 11.25 35.5ZM28.75 35.5C27.7875 35.5 26.9635 35.1573 26.2781 34.4719C25.5927 33.7865 25.25 32.9625 25.25 32C25.25 31.0375 25.5927 30.2135 26.2781 29.5281C26.9635 28.8427 27.7875 28.5 28.75 28.5C29.7125 28.5 30.5365 28.8427 31.2219 29.5281C31.9073 30.2135 32.25 31.0375 32.25 32C32.25 32.9625 31.9073 33.7865 31.2219 34.4719C30.5365 35.1573 29.7125 35.5 28.75 35.5ZM9.7625 7.5L13.9625 16.25H26.2125L31.025 7.5H9.7625ZM8.1 4H33.9125C34.5833 4 35.0937 4.29896 35.4437 4.89687C35.7937 5.49479 35.8083 6.1 35.4875 6.7125L29.275 17.9125C28.9542 18.4958 28.524 18.9479 27.9844 19.2687C27.4448 19.5896 26.8542 19.75 26.2125 19.75H13.175L11.25 23.25H32.25V26.75H11.25C9.9375 26.75 8.94583 26.174 8.275 25.0219C7.60417 23.8698 7.575 22.725 8.1875 21.5875L10.55 17.3L4.25 4H0.75V0.5H6.4375L8.1 4Z" fill="white"/>
</svg>
