<svg width="42" height="42" viewBox="0 0 42 42" fill="none" xmlns="http://www.w3.org/2000/svg">
<path d="M20.895 33.6C21.63 33.6 22.2512 33.3462 22.7587 32.8387C23.2662 32.3312 23.52 31.71 23.52 30.975C23.52 30.24 23.2662 29.6187 22.7587 29.1112C22.2512 28.6037 21.63 28.35 20.895 28.35C20.16 28.35 19.5387 28.6037 19.0312 29.1112C18.5237 29.6187 18.27 30.24 18.27 30.975C18.27 31.71 18.5237 32.3312 19.0312 32.8387C19.5387 33.3462 20.16 33.6 20.895 33.6ZM19.005 25.515H22.89C22.89 24.36 23.0212 23.45 23.2837 22.785C23.5462 22.12 24.29 21.21 25.515 20.055C26.425 19.145 27.1425 18.2787 27.6675 17.4562C28.1925 16.6337 28.455 15.645 28.455 14.49C28.455 12.53 27.7375 11.025 26.3025 9.975C24.8675 8.925 23.17 8.4 21.21 8.4C19.215 8.4 17.5962 8.925 16.3537 9.975C15.1112 11.025 14.245 12.285 13.755 13.755L17.22 15.12C17.395 14.49 17.7887 13.8075 18.4012 13.0725C19.0137 12.3375 19.95 11.97 21.21 11.97C22.33 11.97 23.17 12.2762 23.73 12.8887C24.29 13.5012 24.57 14.175 24.57 14.91C24.57 15.61 24.36 16.2662 23.94 16.8787C23.52 17.4912 22.995 18.06 22.365 18.585C20.825 19.95 19.88 20.9825 19.53 21.6825C19.18 22.3825 19.005 23.66 19.005 25.515ZM21 42C18.095 42 15.365 41.4487 12.81 40.3462C10.255 39.2437 8.0325 37.7475 6.1425 35.8575C4.2525 33.9675 2.75625 31.745 1.65375 29.19C0.55125 26.635 0 23.905 0 21C0 18.095 0.55125 15.365 1.65375 12.81C2.75625 10.255 4.2525 8.0325 6.1425 6.1425C8.0325 4.2525 10.255 2.75625 12.81 1.65375C15.365 0.55125 18.095 0 21 0C23.905 0 26.635 0.55125 29.19 1.65375C31.745 2.75625 33.9675 4.2525 35.8575 6.1425C37.7475 8.0325 39.2437 10.255 40.3462 12.81C41.4487 15.365 42 18.095 42 21C42 23.905 41.4487 26.635 40.3462 29.19C39.2437 31.745 37.7475 33.9675 35.8575 35.8575C33.9675 37.7475 31.745 39.2437 29.19 40.3462C26.635 41.4487 23.905 42 21 42ZM21 37.8C25.69 37.8 29.6625 36.1725 32.9175 32.9175C36.1725 29.6625 37.8 25.69 37.8 21C37.8 16.31 36.1725 12.3375 32.9175 9.0825C29.6625 5.8275 25.69 4.2 21 4.2C16.31 4.2 12.3375 5.8275 9.0825 9.0825C5.8275 12.3375 4.2 16.31 4.2 21C4.2 25.69 5.8275 29.6625 9.0825 32.9175C12.3375 36.1725 16.31 37.8 21 37.8Z" fill="white"/>
</svg>
