<svg width="201" height="150" viewBox="0 0 201 150" fill="none" xmlns="http://www.w3.org/2000/svg">
<path d="M20.4457 70.3453C19.698 70.3453 19.1272 70.1383 18.7352 69.7263C18.3413 69.3142 18.1463 68.7152 18.1463 67.9273V30.4187C18.1463 29.6328 18.3433 29.0237 18.7352 28.5896C19.1272 28.1574 19.6397 27.9404 20.2689 27.9404C20.898 27.9404 21.3603 28.0489 21.6558 28.264C21.9512 28.4811 22.2949 28.863 22.6889 29.4137L48.4008 63.6822H46.9858V30.3001C46.9858 29.5544 47.1828 28.9735 47.5747 28.5594C47.9667 28.1474 48.5375 27.9404 49.2852 27.9404C49.9927 27.9404 50.5334 28.1474 50.9073 28.5594C51.2812 28.9715 51.4681 29.5524 51.4681 30.3001V67.9876C51.4681 68.7353 51.3013 69.3142 50.9676 69.7283C50.6339 70.1403 50.1515 70.3473 49.5224 70.3473C48.9335 70.3473 48.4611 70.2287 48.1074 69.9936C47.7536 69.7584 47.3797 69.3846 46.9858 68.872L21.3301 34.6055H22.6869V67.9273C22.6869 68.7152 22.4899 69.3142 22.098 69.7263C21.702 70.1383 21.1533 70.3453 20.4457 70.3453Z" fill="white"/>
<path d="M66.5652 70.3453C65.7773 70.3453 65.1783 70.1182 64.7662 69.668C64.3542 69.2157 64.1472 68.5966 64.1472 67.8107V30.477C64.1472 29.6509 64.3542 29.0237 64.7662 28.5896C65.1783 28.1574 65.7773 27.9404 66.5652 27.9404C67.3511 27.9404 67.9521 28.1574 68.3641 28.5896C68.7762 29.0217 68.9832 29.6509 68.9832 30.477V67.8087C68.9832 68.5966 68.7862 69.2157 68.3943 69.666C68.0003 70.1182 67.3893 70.3453 66.5652 70.3453Z" fill="white"/>
<path d="M99.1191 70.4639C95.266 70.4639 91.9133 69.5896 89.0631 67.8389C86.2109 66.0902 84.01 63.6219 82.4583 60.438C80.9045 57.2542 80.1287 53.4794 80.1287 49.1137C80.1287 45.8113 80.5709 42.8526 81.4553 40.2375C82.3397 37.6225 83.608 35.4015 85.2602 33.5724C86.9124 31.7433 88.9063 30.3282 91.246 29.3252C93.5856 28.3223 96.2087 27.8218 99.1191 27.8218C103.051 27.8218 106.442 28.6881 109.294 30.4167C112.144 32.1473 114.345 34.5955 115.899 37.7592C117.45 40.925 118.228 44.6897 118.228 49.0534C118.228 52.3558 117.776 55.3246 116.871 57.9597C115.967 60.5948 114.689 62.836 113.038 64.6832C111.386 66.5324 109.39 67.9554 107.053 68.9584C104.713 69.9614 102.068 70.4639 99.1191 70.4639ZM99.1191 66.1585C102.106 66.1585 104.633 65.4912 106.697 64.1525C108.761 62.8159 110.343 60.8702 111.444 58.3135C112.544 55.7588 113.097 52.6915 113.097 49.1137C113.097 43.7269 111.887 39.5501 109.469 36.5813C107.051 33.6126 103.599 32.1292 99.1171 32.1292C96.2067 32.1292 93.7203 32.7985 91.656 34.1352C89.5917 35.4718 88.0079 37.4075 86.9084 39.9441C85.8069 42.4807 85.2562 45.5379 85.2562 49.1157C85.2562 54.4623 86.4742 58.6411 88.9124 61.6481C91.3545 64.655 94.7554 66.1585 99.1191 66.1585Z" fill="white"/>
<path d="M31.5912 121.773C29.742 121.773 27.935 121.616 26.1662 121.301C24.3974 120.987 22.7552 120.535 21.2417 119.944C19.7282 119.355 18.3614 118.607 17.1433 117.703C16.671 117.349 16.3473 116.947 16.1705 116.495C15.9936 116.043 15.9534 115.59 16.0519 115.138C16.1504 114.686 16.3473 114.304 16.6408 113.988C16.9363 113.675 17.2981 113.498 17.7322 113.458C18.1644 113.42 18.6367 113.556 19.1473 113.87C20.9161 115.128 22.8035 116.043 24.8094 116.612C26.8154 117.182 29.0747 117.466 31.5912 117.466C35.1308 117.466 37.7538 116.808 39.4644 115.49C41.1749 114.173 42.0291 112.433 42.0291 110.27C42.0291 108.501 41.41 107.114 40.1719 106.111C38.9337 105.108 36.8594 104.312 33.9489 103.723L27.8144 102.485C24.118 101.699 21.3563 100.411 19.5272 98.622C17.6981 96.8331 16.7855 94.4452 16.7855 91.4564C16.7855 89.6092 17.1594 87.9268 17.9071 86.4133C18.6528 84.8997 19.696 83.6033 21.0327 82.5199C22.3693 81.4385 23.9612 80.6024 25.8104 80.0134C27.6576 79.4245 29.7038 79.129 31.9449 79.129C34.4213 79.129 36.7308 79.4727 38.8754 80.1602C41.0181 80.8476 42.9537 81.8807 44.6843 83.2556C45.1165 83.6093 45.4119 84.0133 45.5687 84.4656C45.7255 84.9178 45.7456 85.35 45.627 85.764C45.5084 86.1781 45.3034 86.5218 45.0079 86.7952C44.7125 87.0705 44.3386 87.2293 43.8884 87.2675C43.4361 87.3077 42.9336 87.1489 42.3849 86.7952C40.8111 85.6153 39.1789 84.761 37.4905 84.2304C35.8001 83.6998 33.9308 83.4345 31.8867 83.4345C29.8023 83.4345 28.0033 83.75 26.4898 84.3771C24.9763 85.0063 23.7964 85.9208 22.9522 87.1188C22.106 88.3188 21.6839 89.7036 21.6839 91.2775C21.6839 93.1649 22.2628 94.6603 23.4246 95.7598C24.5843 96.8613 26.4818 97.6673 29.1149 98.1778L35.2494 99.4763C39.2211 100.302 42.1598 101.551 44.0673 103.221C45.9747 104.893 46.9275 107.163 46.9275 110.033C46.9275 111.763 46.5737 113.355 45.8662 114.811C45.1587 116.266 44.1356 117.514 42.7989 118.555C41.4623 119.598 39.8503 120.394 37.9629 120.943C36.0735 121.498 33.9509 121.773 31.5912 121.773Z" fill="white"/>
<path d="M65.327 121.657C64.5793 121.657 63.9904 121.429 63.5582 120.979C63.1261 120.527 62.909 119.908 62.909 119.122V83.8525H49.639C48.9315 83.8525 48.3807 83.6555 47.9868 83.2636C47.5928 82.8716 47.3978 82.3591 47.3978 81.73C47.3978 81.0626 47.5948 80.5501 47.9868 80.1963C48.3787 79.8426 48.9294 79.6657 49.639 79.6657H81.0734C81.7809 79.6657 82.3316 79.8426 82.7256 80.1963C83.1175 80.5501 83.3145 81.0626 83.3145 81.73C83.3145 82.3993 83.1175 82.9199 82.7256 83.2937C82.3316 83.6676 81.7829 83.8545 81.0734 83.8545H67.8033V119.122C67.8033 119.91 67.5963 120.529 67.1843 120.979C66.7702 121.429 66.1511 121.657 65.327 121.657Z" fill="white"/>
<path d="M103.955 121.773C100.102 121.773 96.7494 120.899 93.8992 119.148C91.047 117.399 88.846 114.931 87.2943 111.747C85.7406 108.563 84.9647 104.789 84.9647 100.423C84.9647 97.1205 85.4069 94.1618 86.2913 91.5468C87.1757 88.9318 88.444 86.7108 90.0963 84.8817C91.7485 83.0526 93.7424 81.6375 96.082 80.6345C98.4217 79.6315 101.045 79.131 103.955 79.131C107.887 79.131 111.278 79.9953 114.13 81.726C116.98 83.4566 119.181 85.9047 120.735 89.0685C122.286 92.2342 123.064 95.999 123.064 100.363C123.064 103.665 122.612 106.634 121.708 109.269C120.803 111.904 119.525 114.145 117.874 115.992C116.222 117.842 114.226 119.267 111.889 120.268C109.549 121.273 106.904 121.773 103.955 121.773ZM103.955 117.468C106.942 117.468 109.469 116.8 111.533 115.462C113.597 114.125 115.179 112.179 116.281 109.623C117.38 107.068 117.933 104.001 117.933 100.423C117.933 95.0362 116.723 90.8594 114.305 87.8906C111.887 84.9218 108.435 83.4385 103.953 83.4385C101.043 83.4385 98.5563 84.1078 96.4921 85.4445C94.4278 86.7811 92.8439 88.7187 91.7445 91.2533C90.643 93.79 90.0922 96.8472 90.0922 100.425C90.0922 105.772 91.3103 109.95 93.7484 112.957C96.1906 115.964 99.5915 117.468 103.955 117.468Z" fill="white"/>
<path d="M132.441 121.657C131.653 121.657 131.054 121.429 130.642 120.979C130.23 120.529 130.023 119.908 130.023 119.122V82.142C130.023 81.3159 130.238 80.6968 130.672 80.2848C131.104 79.8727 131.713 79.6657 132.501 79.6657H146.479C150.921 79.6657 154.342 80.7089 156.742 82.7912C159.14 84.8756 160.34 87.8444 160.34 91.6976C160.34 94.1357 159.799 96.2482 158.718 98.0371C157.636 99.826 156.054 101.183 153.97 102.107C151.886 103.032 149.389 103.494 146.481 103.494L147.07 102.728H148.25C149.783 102.728 151.12 103.122 152.26 103.908C153.399 104.696 154.442 105.952 155.385 107.683L161.047 118.24C161.361 118.79 161.51 119.331 161.489 119.862C161.469 120.392 161.282 120.826 160.929 121.16C160.575 121.494 160.064 121.661 159.395 121.661C158.726 121.661 158.175 121.504 157.743 121.188C157.311 120.875 156.937 120.422 156.623 119.832L150.195 107.918C149.291 106.228 148.25 105.098 147.07 104.527C145.89 103.959 144.336 103.673 142.411 103.673H134.861V119.126C134.861 119.914 134.664 120.533 134.272 120.983C133.876 121.429 133.267 121.657 132.441 121.657ZM134.859 99.834H145.769C148.993 99.834 151.431 99.1567 153.082 97.7999C154.734 96.4432 155.558 94.409 155.558 91.6955C155.558 89.0624 154.732 87.0665 153.082 85.7098C151.429 84.353 148.991 83.6756 145.769 83.6756H134.859V99.834Z" fill="white"/>
<path d="M170.422 121.243C169.558 121.243 168.898 121.017 168.446 120.565C167.994 120.113 167.767 119.456 167.767 118.589V82.3189C167.767 81.4546 167.992 80.7953 168.446 80.3431C168.898 79.8908 169.556 79.6657 170.422 79.6657H192.361C193.028 79.6657 193.541 79.8426 193.895 80.1963C194.248 80.5501 194.425 81.0425 194.425 81.6717C194.425 82.341 194.248 82.8515 193.895 83.2053C193.541 83.5591 193.03 83.7359 192.361 83.7359H172.486V98.1255H191.123C191.79 98.1255 192.303 98.2924 192.656 98.626C193.01 98.9597 193.187 99.4622 193.187 100.13C193.187 100.799 193.01 101.309 192.656 101.663C192.303 102.017 191.792 102.194 191.123 102.194H172.486V117.174H192.361C193.028 117.174 193.541 117.351 193.895 117.705C194.248 118.059 194.425 118.551 194.425 119.18C194.425 119.85 194.248 120.36 193.895 120.714C193.541 121.068 193.03 121.245 192.361 121.245H170.422V121.243Z" fill="white"/>
<path d="M187.786 58.026L180.367 58.6873C177.672 44.762 185.742 48.6775 184.844 24.246C178.012 22.7626 165.887 37.6326 158.507 35.0598C159.278 29.6529 158.249 22.6641 158.249 22.6641C150.746 26.5997 131.508 38.8486 128.785 52.2754L123.635 49.1117C120.184 51.9197 126.67 53.2282 128.049 54.6311C129.436 59.4652 125.303 59.3727 122.694 59.0994C121.334 62.5244 126.505 60.7516 128.049 61.1777C130.897 66.5243 124.823 66.9886 122.087 69.6257C127.653 74.5804 129.818 57.819 135.87 78.4898C137.172 71.3242 151.759 77.0828 151.847 83.5772C155.405 72.3292 161.276 82.8053 173.417 72.2609C178.576 75.6598 180.335 80.8194 182.538 76.6748L175.379 70.5926C175.379 70.5926 177.819 67.871 178.058 66.9886C180.596 68.2569 184.164 70.0237 184.164 70.0237C187.382 66.9384 180.657 66.0701 179.179 64.7816C178.874 57.6703 189.565 63.4128 187.786 58.026ZM134.718 63.2862C128.978 62.1626 130.688 51.1458 135.993 49.7489C142.117 48.9851 140.622 64.1686 134.718 63.2862ZM145.116 57.7446C145.154 48.4223 159.793 48.3218 159.928 57.7446C160.613 67.5796 144.638 67.0349 145.116 57.7446ZM176.788 46.3901C172.852 41.13 169.063 39.2165 169.063 39.2165C174.249 32.4488 181.3 30.879 181.3 30.879C181.919 35.0216 180.08 36.517 176.07 36.5311C175.163 36.6055 180.621 37.6004 180.024 38.9592L177.007 39.2165C180.611 42.1289 180.273 39.1501 176.788 46.3901Z" stroke="url(#paint0_linear_101_6)" stroke-width="2" stroke-miterlimit="10"/>
<defs>
<linearGradient id="paint0_linear_101_6" x1="133.691" y1="82.4349" x2="189.079" y2="27.047" gradientUnits="userSpaceOnUse">
<stop stop-color="#36A9E1"/>
<stop offset="0.3291" stop-color="#1D71B8"/>
<stop offset="0.7035" stop-color="#2D2E83"/>
<stop offset="1" stop-color="#29235C"/>
</linearGradient>
</defs>
</svg>
